<?xml version="1.0" ?><svg data-name="Layer 5" id="Layer_5" viewBox="0 0 32 32" xmlns="http://www.w3.org/2000/svg"><defs><style>.cls-1{fill:#f41870;}.cls-2{fill:#361041;}</style></defs><polygon class="cls-1" points="16.82 5.92 16.63 14.95 17.78 27.87 19.98 27.3 21.86 21.97 21.86 11.82 20.27 6.63 16.82 5.92"/><path class="cls-2" d="M3,26.44A17.84,17.84,0,0,0,3,28.64c.1.59.43.69,1,.67.91,0,.77-.95.81-1.64,0-1,0-1.9,0-2.86a22.6,22.6,0,0,1,0-4.43c.65,2.13,1.58,4.21,2.37,6.3.21.55.44,1.74.92,2.14A1,1,0,0,0,9,29c.65-.08.94-.37.78-1-.22-.95-.67-1.84-1-2.77S8.29,23.58,8,22.81a32.68,32.68,0,0,1-1.25-4.09,9.75,9.75,0,0,1,.57-4.92c.54-1.87,1-3.76,1.51-5.64.27-1,1.32-3.15-.29-3.49-.85-.18-1,1.5-1.18,2.07C7,7.85,6.69,9,6.43,10.07,6,11.82,5.61,13.61,5,15.31,5,12.52,5,9.76,5.15,7c0-.51,0-1,.06-1.53,0-.66.1-1.24-.68-1.26a4.29,4.29,0,0,0-.72,0C3,4.38,3.18,5.39,3.18,6c0,2.2-.05,4.41,0,6.62,0,1.39-.07,2.79-.15,4.18-.09,1.75-.09,3.48-.06,5.22C3,23.52,2.93,25,3,26.44Z"/><path class="cls-2" d="M23,18.38a43.3,43.3,0,0,0-.29-6.64C22.53,9.85,22.37,7.5,21,6A5.66,5.66,0,0,0,18.37,4.3c-.63-.17-2-.42-2.43.33a3.24,3.24,0,0,0-.13,1.2c0,.65,0,1.3,0,2s0,1.48,0,2.22c0,3.25.1,6.5.14,9.75,0,2.45.3,4.89.39,7.33,0,1,.08,1.75,1.24,1.79A3.86,3.86,0,0,0,20,28.12a7.24,7.24,0,0,0,2.28-3.89A31.2,31.2,0,0,0,23,18.38ZM21.2,16.77a26.94,26.94,0,0,1-.83,7.05c-.12.39-1.19,3.25-1.8,2.92-.15-.08-.16-1-.18-1.26-.09-.86-.12-1.73-.15-2.59-.12-3.36-.48-6.73-.48-10.09,0-1.71-.23-3.46-.11-5.16,0-.34,0-1,.5-1S19.34,7.71,19.58,8a8.21,8.21,0,0,1,1.34,4.09A30.16,30.16,0,0,1,21.2,16.77Z"/><path class="cls-2" d="M29,6.08c.68-.27,1.1-.26.91-1.16-.64-2.87-4.63,1.2-5.28,2.14a5.75,5.75,0,0,0-1.12,4.27,9.43,9.43,0,0,0,1.81,3.95l0,0c1.33,2,2.35,4.08,2,6.52a5.7,5.7,0,0,1-1.7,3.49,6.07,6.07,0,0,1-1.44,1c-.31.16-.89.34-1.1.63a2.43,2.43,0,0,0,.65,2.34c.81.35,2.37-.83,3-1.3a8.23,8.23,0,0,0,3-5.93A12.23,12.23,0,0,0,29,17.3a14.43,14.43,0,0,0-2.4-3.9,5.25,5.25,0,0,1-.19-5.27A5.09,5.09,0,0,1,29,6.08Z"/><path class="cls-2" d="M10.51,27.5c-.16.24,0,.77.06,1,.23,1.09,1.65.78,2.51.71s1.91.11,2.07-.79A1.82,1.82,0,0,0,15,27.26c-.29-.36-1-.17-1.37-.1a8.69,8.69,0,0,0-.11-2.38c-.09-1.25,0-2.51-.06-3.76-.08-2-.09-3.94-.06-5.9,0-1.69,0-3.39,0-5.08,0-.68,0-1.37,0-2,0-.27-.12-1.39.12-1.4s.64,0,1-.08c.74-.1.63-.76.63-1.3v0c0-.21,0-.51-.29-.69a2.56,2.56,0,0,0-1.07-.11c-.82,0-1.64-.1-2.46-.09s-1.4,0-1.44.82c-.06,1.11.65,1.45,1.65,1.37-.07,1.36.09,2.76.08,4.12,0,2.06.09,4.12.09,6.17s.19,4,.18,6c0,1.52-.06,3,0,4.56C11.57,27.19,10.7,27.21,10.51,27.5Z"/></svg>