<?xml version="1.0" encoding="UTF-8" standalone="no" ?>
<!DOCTYPE svg PUBLIC "-//W3C//DTD SVG 1.1//EN" "http://www.w3.org/Graphics/SVG/1.1/DTD/svg11.dtd">
<svg xmlns="http://www.w3.org/2000/svg" xmlns:xlink="http://www.w3.org/1999/xlink" version="1.1" width="400" height="400" viewBox="0 0 400 400" xml:space="preserve">
<desc>Created with Fabric.js 3.6.2</desc>
<defs>
</defs>
<g transform="matrix(10.03 0 0 10.03 200 200)"  >
<path style="stroke: none; stroke-width: 1; stroke-dasharray: none; stroke-linecap: butt; stroke-dashoffset: 0; stroke-linejoin: miter; stroke-miterlimit: 4; fill: rgb(101,99,255); fill-rule: nonzero; opacity: 1;"  transform=" translate(-11.96, -11.97)" d="M 14.94 6.56 h 3.58 l -0.79 0.8 a 1 1 0 0 0 0 1.41 a 1 1 0 0 0 1.41 0 l 2.5 -2.5 a 1 1 0 0 0 0 -1.41 l -2.5 -2.5 a 1 1 0 0 0 -1.41 1.41 l 0.79 0.79 H 14.94 a 1 1 0 0 0 0 2 Z M 19.44 13 c -0.22 0 -0.45 -0.07 -0.67 -0.12 a 9.44 9.44 0 0 1 -1.31 -0.39 a 2 2 0 0 0 -2.48 1 l -0.22 0.45 a 12.18 12.18 0 0 1 -2.66 -2 a 12.18 12.18 0 0 1 -2 -2.66 L 10.52 9 a 2 2 0 0 0 1 -2.48 a 10.33 10.33 0 0 1 -0.39 -1.31 c -0.05 -0.22 -0.09 -0.45 -0.12 -0.68 a 3 3 0 0 0 -3 -2.49 h -3 a 3 3 0 0 0 -3 3.41 A 19 19 0 0 0 18.53 21.91 l 0.38 0 a 3 3 0 0 0 2 -0.76 a 3 3 0 0 0 1 -2.25 v -3 A 3 3 0 0 0 19.44 13 Z m 0.5 6 a 1 1 0 0 1 -0.34 0.75 a 1.06 1.06 0 0 1 -0.82 0.25 A 17 17 0 0 1 4.07 5.22 a 1.09 1.09 0 0 1 0.25 -0.82 a 1 1 0 0 1 0.75 -0.34 h 3 a 1 1 0 0 1 1 0.79 q 0.06 0.41 0.15 0.81 a 11.12 11.12 0 0 0 0.46 1.55 l -1.4 0.65 a 1 1 0 0 0 -0.49 1.33 a 14.49 14.49 0 0 0 7 7 a 1 1 0 0 0 0.76 0 a 1 1 0 0 0 0.57 -0.52 l 0.62 -1.4 a 13.69 13.69 0 0 0 1.58 0.46 q 0.4 0.09 0.81 0.15 a 1 1 0 0 1 0.79 1 Z" stroke-linecap="round" />
</g>
</svg>